<svg width="480" height="327" viewBox="0 0 480 327" fill="none" xmlns="http://www.w3.org/2000/svg">
<g clip-path="url(#clip0_3_99)">
<rect width="480" height="327" fill="white"/>
<path d="M449.71 157.969H48.3199C42.9397 157.969 38.5626 153.607 38.5626 148.246V11.7219C38.5626 6.3612 42.9397 2 48.3199 2H449.71C455.091 2 459.468 6.3612 459.468 11.7219V148.246C459.468 153.607 455.091 157.969 449.71 157.969ZM48.3199 3.15906C43.5812 3.15906 39.7259 7.00044 39.7259 11.7219V148.246C39.7259 152.968 43.5812 156.81 48.3199 156.81H449.71C454.449 156.81 458.304 152.968 458.304 148.246V11.7219C458.304 7.00044 454.449 3.15906 449.71 3.15906H48.3199V3.15906Z" fill="#3F3D56"/>
<path d="M474 321H8V322H474V321Z" fill="#E6E6E6"/>
<path d="M474 271H7V272H474V271Z" fill="#E6E6E6"/>
<path d="M218.585 162.989C218.941 167.44 221.534 170.865 224.377 170.639C227.219 170.413 229.235 166.623 228.879 162.17C228.761 160.39 228.217 158.663 227.292 157.135L225.547 138.296L216.692 139.301L219.352 157.766C218.682 159.421 218.419 161.212 218.585 162.989Z" fill="#FFB6B6"/>
<path d="M208.007 75.0982C208.007 75.0982 216.285 70.732 220.482 77.2567C224.68 83.7813 227.577 154.347 227.577 154.347L215.943 155.584L213.737 105.859L208.007 75.0982V75.0982Z" fill="#E6E6E6"/>
<path d="M190.826 267.544L197.565 267.543L200.772 241.641L190.824 241.642L190.826 267.544Z" fill="#FFB6B6"/>
<path d="M213.917 267.391C214.127 267.744 214.237 268.88 214.237 269.29C214.237 270.548 213.213 271.569 211.95 271.569H191.078C190.216 271.569 189.517 270.873 189.517 270.014V269.148C189.517 269.148 188.485 266.546 190.611 263.339C190.611 263.339 193.253 265.85 197.201 261.916L198.365 259.815L206.792 265.956L211.463 266.529C212.485 266.654 213.391 266.509 213.917 267.391H213.917H213.917Z" fill="#2F2E41"/>
<path d="M229.828 266.432L236.358 264.769L233.03 238.883L223.392 241.336L229.828 266.432Z" fill="#FFB6B6"/>
<path d="M252.163 260.59C252.453 260.88 252.843 261.953 252.945 262.35C253.257 263.57 252.519 264.811 251.295 265.123L231.072 270.27C230.237 270.482 229.387 269.98 229.174 269.148L228.958 268.309C228.958 268.309 227.312 266.043 228.575 262.411C228.575 262.411 231.758 264.192 234.606 259.408L235.212 257.085L244.903 260.956L249.571 260.359C250.592 260.229 251.434 259.865 252.162 260.59H252.163V260.59Z" fill="#2F2E41"/>
<path d="M185.25 69.53L184.93 67.2194L188.728 57.9771L199.164 56.8218L201.417 70.0534L185.25 69.53Z" fill="#FFB6B6"/>
<path opacity="0.1" d="M185.25 69.53L184.93 67.2194L188.728 57.9771L199.164 56.8218L201.417 70.0534L185.25 69.53Z" fill="black"/>
<path d="M173.075 134.804L168.437 147.512L171.915 154.444L189.308 254.955H200.871L198.584 165.997L225.253 254.955H236.697L227.494 194.879L220.615 139.425L216.442 136.857L196.265 125.562L173.075 134.804Z" fill="#2F2E41"/>
<path d="M202.642 143.469L195.685 144.624L186.409 122.674H207.28L202.642 143.469Z" fill="#E6E6E6"/>
<path d="M216.556 137.692L202.642 143.469L198.004 133.071L195.685 144.624L171.336 136.814L174.814 122.674L171.336 76.4618L183.615 68.3053L185.25 67.2194L200.323 68.3747L201.645 69.091L210.759 74.1512L213.078 112.276L216.556 137.692Z" fill="#2F2E41"/>
<path d="M201.645 69.091L195.106 96.6794L183.615 68.3053L185.25 67.2194L200.323 68.3747L201.645 69.091Z" fill="#E6E6E6"/>
<path d="M190.468 67.2194L188.149 71.1988L190.468 72.5252L189.308 96.7512L193.946 103.034L198.584 93.7484L195.106 72.5252L196.265 67.2194H190.468Z" fill="#2F2E41"/>
<path d="M193.946 64.9088C200.03 64.9088 204.961 59.995 204.961 53.9335C204.961 47.8721 200.03 42.9583 193.946 42.9583C187.862 42.9583 182.931 47.8721 182.931 53.9335C182.931 59.995 187.862 64.9088 193.946 64.9088Z" fill="#FFB6B6"/>
<path d="M186.906 54.8963L189.287 55.9312L190.325 49.7215C190.325 49.7215 194.48 47.6516 197.596 48.6866C200.713 49.7215 205.906 48.6866 205.906 48.6866C205.906 48.6866 205.906 38.3371 198.635 38.3371C191.364 38.3371 184.093 39.372 184.093 42.4769C184.093 45.5817 180.977 48.6866 180.977 48.6866C180.977 48.6866 176.822 54.8963 180.977 59.0361C185.132 63.1759 187.209 63.1759 187.209 63.1759L186.906 54.8963Z" fill="#2F2E41"/>
<path d="M165.533 162.665C165.412 167.128 167.625 170.808 170.476 170.884C173.327 170.96 175.735 167.404 175.855 162.939C175.928 161.156 175.571 159.382 174.814 157.765L175.086 138.848L166.174 138.91L166.852 157.552C166.009 159.127 165.556 160.88 165.533 162.665V162.665Z" fill="#FFB6B6"/>
<path d="M176.559 74.1295C176.559 74.1295 169.022 71.8189 165.544 78.7507C162.065 85.6825 166.703 156.155 166.703 156.155H178.403L175.298 106.478L176.559 74.1295V74.1295Z" fill="#E6E6E6"/>
<path d="M465.678 205.42L437.572 196.848C436.951 196.658 436.298 196.589 435.65 196.644L293.204 208.723C291.173 208.895 290.663 211.624 292.495 212.514L297.058 214.729H296.937V320.755H301.236V216.757L315.536 223.698C316.63 224.229 317.851 224.446 319.062 224.324L320.584 224.171V320.755H324.883V223.738L435.058 212.65V320.755H439.358V212.217L457.631 210.378V320.755H461.93V209.945L465.264 209.61C467.604 209.374 467.928 206.106 465.678 205.42H465.678Z" fill="#3F3D56"/>
<path d="M334.557 208.303C337.244 208.303 377.015 203.484 377.015 203.484L382.927 211.516L341.544 219.548L334.557 208.303V208.303Z" fill="white"/>
<path d="M378.206 316.637L371.296 316.625L368.055 290.064L378.253 290.083L378.206 316.637Z" fill="#A0616A"/>
<path d="M354.533 316.441C354.317 316.801 354.202 317.966 354.201 318.386C354.199 319.677 355.247 320.725 356.542 320.727L377.94 320.763C378.824 320.765 379.541 320.052 379.543 319.172L379.545 318.284C379.545 318.284 380.608 315.618 378.434 312.326C378.434 312.326 375.721 314.897 371.68 310.857L370.491 308.7L361.84 314.981L357.05 315.56C356.002 315.687 355.074 315.537 354.533 316.441H354.533L354.533 316.441Z" fill="#2F2E41"/>
<path d="M415.29 304.286L409.839 308.383L391.384 289.382L399.43 283.335L415.29 304.286Z" fill="#A0616A"/>
<path d="M396.52 318.201C396.566 318.613 397.173 319.6 397.424 319.931C398.194 320.949 399.648 321.152 400.67 320.384L417.551 307.695C418.249 307.171 418.387 306.183 417.862 305.489L417.331 304.788C417.331 304.788 416.573 302.056 412.889 300.754C412.889 300.754 412.29 304.392 406.688 303.61L404.46 302.618L401.404 312.708L397.977 316.012C397.227 316.734 396.406 317.168 396.521 318.201L396.52 318.201V318.201Z" fill="#2F2E41"/>
<path d="M400.85 167.016C400.85 173.364 395.684 178.511 389.313 178.511C382.941 178.511 377.775 173.364 377.775 167.016C377.775 160.667 382.941 155.52 389.313 155.52C395.684 155.52 400.85 160.667 400.85 167.016Z" fill="#A0616A"/>
<path d="M399.763 233.295C399.763 233.295 357.284 230.899 354.88 235.691C352.475 240.482 367.878 306.297 367.878 306.297L381.621 303.427L374.917 257.252C374.917 257.252 410.364 266.606 415.173 255.426C419.982 244.246 418.598 240.083 418.598 240.083L399.763 233.295V233.295Z" fill="#2F2E41"/>
<path d="M410.646 225.252C410.646 225.252 369.045 234.138 367.998 239.392C366.951 244.647 399.28 304.057 399.28 304.057L411.771 297.668L393.046 254.905C393.046 254.905 429.714 254.582 431.383 242.533C433.053 230.484 430.612 226.834 430.612 226.834L410.646 225.252V225.252Z" fill="#2F2E41"/>
<path d="M415.392 180.19H395.405L381.729 202.55C381.729 202.55 378.523 217 381.729 218.559C384.935 220.118 384.935 236.888 384.935 236.888L418.598 240.083C418.598 240.083 423.407 189.773 421.804 184.981C420.201 180.19 415.392 180.19 415.392 180.19V180.19Z" fill="#F56300"/>
<path d="M383.733 194.963L381.729 218.559L359.192 209.029L353.813 206.333C352.76 204.965 351.393 203.867 349.826 203.133C345.931 201.241 341.795 201.71 340.587 204.179C339.379 206.648 341.557 210.183 345.451 212.073C346.998 212.85 348.708 213.247 350.44 213.23L366.178 222.136L366.196 222.101L366.266 222.226L390.947 232.496L396.625 201.521L383.733 194.963H383.733Z" fill="#A0616A"/>
<path d="M381.329 168.611C381.329 168.611 369.306 170.208 374.115 159.826C374.115 159.826 373.382 154.199 376.955 153.818C380.527 153.438 385.336 147.049 385.336 147.049C385.336 147.049 396.361 141.459 402.069 147.049C407.778 152.639 424.609 185.381 424.609 185.381L413.388 197.359C413.388 197.359 406.642 179.69 398.794 181.737C390.947 183.783 383.733 189.886 383.733 189.886C383.733 189.886 375.769 185.915 379.35 182.453C382.932 178.992 381.329 168.611 381.329 168.611Z" fill="#2F2E41"/>
<path d="M397.358 186.179C397.358 186.179 391.748 178.992 387.741 184.582C383.733 190.172 380.527 197.359 380.527 197.359L396.557 202.949L397.358 186.179H397.358Z" fill="#F56300"/>
<path d="M458.221 319.165L439.597 260.186L439.6 260.186H439.643L439.568 260.09L439.566 260.088L438.239 255.887L438.24 255.886C440.261 254.151 441.637 251.672 441.911 248.818L433.398 202.166C433.984 196.04 429.27 190.685 423.095 190.466L403.887 190.418C398.427 190.225 393.697 194.155 392.902 199.542L392.477 202.402L386.592 242.29C386.377 243.725 386.463 245.139 386.802 246.462L382.567 247.013L381.282 247.185L376.203 247.843L376.187 247.849L375.553 247.929H374.865V265.064H374.908V319.834C374.908 320.187 375.198 320.477 375.553 320.477C375.913 320.477 376.203 320.187 376.203 319.834V265.064H383.738L391.257 319.77C391.306 320.091 391.58 320.327 391.902 320.327C391.929 320.327 391.961 320.327 391.988 320.321C392.343 320.273 392.59 319.946 392.542 319.593L385.05 265.064H421.203C424.793 265.064 428.119 263.929 430.828 261.986L445.162 319.669C445.237 319.961 445.5 320.155 445.789 320.155C445.842 320.155 445.896 320.149 445.949 320.135C446.296 320.048 446.505 319.696 446.417 319.351L431.944 261.11C432.137 260.95 432.329 260.78 432.511 260.604L438.265 260.267L456.986 319.553C457.073 319.828 457.328 320.004 457.603 320.004C457.668 320.004 457.733 319.995 457.798 319.974C458.139 319.867 458.328 319.505 458.221 319.165V319.165ZM437.009 256.802C437.058 256.775 437.101 256.743 437.144 256.716L437.144 256.716L437.282 257.154L437.009 256.802V256.802Z" fill="#E6E6E6"/>
<path d="M92.7901 219.194L105.324 211.252L110.42 214.314L92.7901 234.498V219.194Z" fill="#FFB6B6"/>
<path d="M75.6503 188.454C75.6503 188.454 67.3252 190.406 71.2429 201.628C75.1606 212.851 87.893 236.271 91.8107 234.808C95.7284 233.344 96.2181 218.706 96.2181 218.706C96.2181 218.706 95.7284 219.194 93.7696 217.242C91.8107 215.29 91.8107 216.182 91.8107 214.028C91.8107 211.875 90.2086 210.278 90.2086 210.278L88.3828 206.508C88.3828 206.508 88.3827 188.942 81.0371 187.966C73.6914 186.99 75.6503 188.454 75.6503 188.454L75.6503 188.454Z" fill="#E6E6E6"/>
<path d="M114.545 213.79C117.796 210.55 118.804 206.302 116.796 204.302C114.788 202.301 110.525 203.305 107.274 206.544C104.022 209.784 103.015 214.032 105.023 216.032C107.031 218.033 111.294 217.029 114.545 213.79Z" fill="#FFB6B6"/>
<path d="M43.224 253.105L51.7765 267.21L101.617 264.271L88.3461 247.228L43.224 253.105Z" fill="#E6E6E6"/>
<path d="M58.1165 319.073C57.8262 319.073 57.5733 318.86 57.5328 318.565L42.6396 210.189C42.5954 209.867 42.8212 209.571 43.1439 209.527C43.4664 209.48 43.764 209.708 43.8083 210.029L58.7016 318.406C58.7458 318.727 58.52 319.024 58.1973 319.068C58.1701 319.071 58.1431 319.073 58.1165 319.073Z" fill="#E6E6E6"/>
<path d="M43.224 319.211C42.8982 319.211 42.6341 318.948 42.6341 318.623V210.13C42.6341 209.805 42.8982 209.542 43.224 209.542C43.5497 209.542 43.8138 209.805 43.8138 210.13V318.623C43.8138 318.948 43.5497 319.211 43.224 319.211Z" fill="#E6E6E6"/>
<path d="M117.985 318.78C117.734 318.78 117.502 318.619 117.422 318.368L82.1801 206.759C82.0823 206.45 82.2549 206.12 82.5657 206.022C82.8763 205.925 83.2077 206.097 83.3053 206.406L118.548 318.015C118.646 318.325 118.473 318.655 118.162 318.752C118.103 318.771 118.044 318.78 117.985 318.78V318.78Z" fill="#E6E6E6"/>
<path d="M107.22 318.917C106.957 318.917 106.717 318.74 106.649 318.474L82.171 219.972C82.0908 219.657 82.2816 219.337 82.5972 219.257C82.9139 219.178 83.234 219.367 83.3144 219.682L107.792 318.184C107.873 318.499 107.682 318.819 107.366 318.899C107.317 318.911 107.268 318.917 107.22 318.917H107.22Z" fill="#E6E6E6"/>
<path d="M43.224 211.858L84.0698 211.232L91.5902 253.987H43.8138L43.224 211.858Z" fill="#E6E6E6"/>
<path d="M105.994 274.725L95.7 292.783L107.652 295.405L112.635 282.561L105.994 274.725Z" fill="#FFB6B6"/>
<path d="M99.3973 289.374C99.3973 289.374 98.9973 286.429 96.6457 287.363C94.2941 288.298 87.5073 291.771 87.5073 291.771C87.5073 291.771 105.209 320.429 108.568 319.094C111.928 317.759 107.906 309.658 107.906 309.658L108.794 295.339L99.3972 289.374H99.3973Z" fill="#2F2E41"/>
<path d="M60.4692 239.687C60.4692 239.687 56.7964 256.52 68.0597 262.376C79.3231 268.231 117.765 253.837 117.765 253.837L100.136 280.156L112.379 285.064C112.379 285.064 140.292 248.47 138.333 242.614C136.374 236.759 123.152 236.271 123.152 236.271L93.2798 237.735L85.4445 235.295L60.4692 239.687H60.4692Z" fill="#2F2E41"/>
<path d="M90.765 282.74L74.5821 295.827L84.7573 302.602L94.089 292.446L90.765 282.74Z" fill="#FFB6B6"/>
<path d="M79.271 293.992C79.271 293.992 79.9738 291.104 77.4422 291.122C74.9105 291.14 67.3207 291.914 67.3207 291.914C67.3207 291.914 73.3424 325.025 76.9591 325C80.5757 324.974 79.7885 315.971 79.7885 315.971L85.8448 302.955L79.271 293.992V293.992Z" fill="#2F2E41"/>
<path d="M61.1578 233.598C61.1578 233.598 51.589 247.946 59.9418 257.483C68.2946 267.02 109.358 267.551 109.358 267.551L83.3252 285.674L92.9361 294.685C92.9361 294.685 132.301 270.719 132.615 264.555C132.928 258.391 120.791 253.143 120.791 253.143L92.4318 243.676L86.0246 238.562L61.1578 233.598H61.1578Z" fill="#2F2E41"/>
<path d="M85.7395 200.365C85.7395 200.365 76.435 196.949 72.0276 196.949C71.6064 196.949 71.1902 196.998 70.7739 197.086C67.9532 197.681 65.3577 200.096 64.1139 201.414C63.629 201.931 63.3499 202.277 63.3499 202.277C63.3499 202.277 63.3793 201.941 63.4381 201.35C63.727 198.247 64.7945 188.064 66.7093 181.545C67.3949 179.218 68.1834 177.359 69.0893 176.456C71.2 174.348 72.1745 171.821 72.625 169.937C73.007 168.322 73.007 167.185 73.007 167.185L69.437 165.653L68.7759 161.35C68.6584 161.857 68.1148 162.848 66.2882 164.746C66.1315 164.907 65.9601 165.043 65.7789 165.16C63.1442 166.81 57.7721 163.941 54.8779 162.135C56.0826 157.963 58.2667 154.148 62.2334 153.523C71.5379 152.059 71.5379 146.692 77.4144 152.547C77.8992 153.03 78.3889 153.494 78.8786 153.943C80.7591 157.524 81.4447 162.325 81.6896 165.663C81.8659 168 81.8218 169.625 81.8218 169.625C81.8218 169.625 84.2703 184.263 88.188 187.19C92.1057 190.118 85.7395 200.365 85.7395 200.365V200.365Z" fill="#2F2E41"/>
<path d="M67.6202 176.944L61.0033 186.614L75.9453 190.606V176.944H67.6202Z" fill="#FFB6B6"/>
<path opacity="0.1" d="M67.6202 176.944L61.0033 186.614L75.9453 190.606V176.944H67.6202Z" fill="black"/>
<path d="M76.8745 186.258L62.6729 180.403C62.6729 180.403 43.5742 188.698 45.0433 204.8C46.5125 220.902 60.2244 248.714 60.2244 248.714L87.6482 237.003L84.7099 205.776L76.8745 186.258V186.258Z" fill="#E6E6E6"/>
<path d="M70.7855 181.261C77.7052 181.261 83.3147 175.672 83.3147 168.778C83.3147 161.883 77.7052 156.294 70.7855 156.294C63.8658 156.294 58.2562 161.883 58.2562 168.778C58.2562 175.672 63.8658 181.261 70.7855 181.261Z" fill="#FFB6B6"/>
<path d="M87.6983 164.258C85.2498 166.697 83.2909 169.137 83.2909 169.137L82.3115 165.234C82.3115 165.234 82.0862 165.399 81.6896 165.663C80.1372 166.717 75.9697 169.366 72.625 169.937C71.1363 170.191 69.8141 170.03 68.9522 169.137C67.1256 167.239 66.582 166.248 66.4645 165.741L65.8033 170.044L62.2334 171.577C62.2334 171.577 62.2334 176.934 66.1511 180.847C66.342 181.038 66.5281 181.272 66.7093 181.545C68.58 184.356 69.9218 191.235 70.7739 197.086C71.5281 202.287 71.8904 206.669 71.8904 206.669C71.8904 206.669 68.1834 202.043 64.1139 201.414C63.8886 201.379 63.6633 201.355 63.4381 201.35C63.3646 201.34 63.2863 201.34 63.2128 201.34C58.8054 201.34 49.5009 204.756 49.5009 204.756C49.5009 204.756 43.1347 194.509 47.0523 191.582C50.97 188.654 53.4186 174.016 53.4186 174.016C53.4186 174.016 53.257 167.751 54.8779 162.135C56.0826 157.963 58.2667 154.148 62.2334 153.523C71.5379 152.059 71.5379 146.692 77.4144 152.547C77.8992 153.03 78.3889 153.494 78.8786 153.943C84.3536 158.959 89.9461 162.018 87.6983 164.258V164.258Z" fill="#2F2E41"/>
<path d="M32.7461 229.756H28.0929V321.322H32.7461V229.756Z" fill="#3F3D56"/>
<path d="M145.585 229.756H140.932V321.322H145.585V229.756Z" fill="#3F3D56"/>
<path d="M115.921 190.927H85.0942V221.642H115.921V190.927Z" fill="#F56300"/>
<path d="M67.3252 223.585L79.8591 215.643L84.9548 218.706L67.3252 238.89V223.585Z" fill="#FFB6B6"/>
<path d="M50.1853 192.845C50.1853 192.845 41.8602 194.797 45.7779 206.02C49.6956 217.242 62.4281 240.663 66.3458 239.199C70.2634 237.735 70.7531 223.097 70.7531 223.097C70.7531 223.097 70.2634 223.585 68.3046 221.633C66.3458 219.682 66.3458 220.573 66.3458 218.42C66.3458 216.266 64.7436 214.67 64.7436 214.67L62.9178 210.899C62.9178 210.899 62.9178 193.333 55.5721 192.358C48.2265 191.382 50.1853 192.845 50.1853 192.845H50.1853Z" fill="#E6E6E6"/>
<path d="M89.0804 218.181C92.3315 214.942 93.3393 210.694 91.3312 208.693C89.3231 206.692 85.0597 207.696 81.8086 210.936C78.5574 214.175 77.5497 218.423 79.5578 220.424C81.5658 222.424 85.8292 221.42 89.0804 218.181Z" fill="#FFB6B6"/>
<path d="M154.892 226.279H14.1335V236.71H154.892V226.279Z" fill="#3F3D56"/>
<path d="M297.901 142.826H277.113C275.465 142.826 274.129 144.157 274.129 145.799V154.341C274.129 155.983 275.465 157.314 277.113 157.314H297.901C299.549 157.314 300.885 155.983 300.885 154.341V145.799C300.885 144.157 299.549 142.826 297.901 142.826Z" fill="#3F3D56"/>
<path d="M341.524 151.368H320.736C319.088 151.368 317.752 152.7 317.752 154.341V154.341C317.752 155.983 319.088 157.314 320.736 157.314H341.524C343.172 157.314 344.508 155.983 344.508 154.341V154.341C344.508 152.7 343.172 151.368 341.524 151.368Z" fill="#F56300"/>
</g>
<defs>
<clipPath id="clip0_3_99">
<rect width="480" height="327" fill="white"/>
</clipPath>
</defs>
</svg>
