<svg width="480" height="380" viewBox="0 0 480 380" fill="none" xmlns="http://www.w3.org/2000/svg">
<rect width="480" height="380" fill="white"/>
<g clip-path="url(#clip0_3_50)">
<path d="M129.279 89.195L73.13 81.7201L84.4928 24.2572L144.811 36.1507L129.279 89.195Z" fill="#2F2E41"/>
<path d="M75.3042 337.79V100.734C75.3042 96.4385 78.8039 92.9435 83.1062 92.9435H468.198C472.5 92.9435 476 96.4385 476 100.734V337.79C476 342.086 472.5 345.581 468.198 345.581H83.1062C78.8039 345.581 75.3042 342.086 75.3042 337.79ZM474.587 100.734C474.587 97.2111 471.726 94.3549 468.198 94.3549H83.1062C79.5779 94.3549 76.7176 97.2111 76.7176 100.734V337.79C76.7176 341.313 79.5779 344.17 83.1062 344.17H356.827C421.864 344.17 474.587 291.522 474.587 226.578V100.734Z" fill="#3F3D56"/>
<path d="M437.011 128.437L431.195 125.686C433.58 129.01 435.636 134.202 436.736 138.334C438.599 134.485 441.603 129.776 444.576 126.964L438.429 128.543C442.217 110.006 456.463 96.698 472.778 96.698L473.009 96.0284C455.968 96.0284 440.878 109.152 437.011 128.437V128.437Z" fill="#3F3D56"/>
<path d="M463.78 156.682H427.032C425.473 156.682 424.205 155.415 424.205 153.859C424.205 152.303 425.473 151.036 427.032 151.036H463.78C465.339 151.036 466.607 152.303 466.607 153.859C466.607 155.415 465.339 156.682 463.78 156.682Z" fill="#F56300"/>
<path d="M354.673 177.883V252.686C354.673 259.301 349.284 264.683 342.659 264.683H267.75C261.125 264.683 255.736 259.301 255.736 252.686V177.883C255.736 171.268 261.125 165.886 267.75 165.886H342.659C349.284 165.886 354.673 171.268 354.673 177.883ZM338.012 263.272C346.433 263.272 353.26 256.455 353.26 248.046V214.974C353.26 188.643 331.884 167.298 305.516 167.298H267.75C261.895 167.298 257.149 172.037 257.149 177.883V242.25C257.149 253.86 266.574 263.272 278.201 263.272H338.012V263.272Z" fill="#3F3D56"/>
<path d="M315.176 196.437H290.993C290.383 196.437 289.887 195.942 289.887 195.333C289.887 194.724 290.383 194.229 290.993 194.229H315.176C315.786 194.229 316.282 194.724 316.282 195.333C316.282 195.942 315.786 196.437 315.176 196.437V196.437Z" fill="#3F3D56"/>
<path d="M315.176 219.982H290.993C290.383 219.982 289.887 219.486 289.887 218.877C289.887 218.269 290.383 217.773 290.993 217.773H315.176C315.786 217.773 316.282 218.269 316.282 218.877C316.282 219.486 315.786 219.982 315.176 219.982V219.982Z" fill="#3F3D56"/>
<path d="M303.162 252.443H278.979C278.369 252.443 277.873 251.948 277.873 251.339C277.873 250.73 278.369 250.235 278.979 250.235H303.162C303.772 250.235 304.268 250.73 304.268 251.339C304.268 251.948 303.772 252.443 303.162 252.443V252.443Z" fill="#3F3D56"/>
<path d="M328.153 208.217H278.016C277.406 208.217 276.91 207.722 276.91 207.113C276.91 206.504 277.406 206.009 278.016 206.009H328.153C328.763 206.009 329.259 206.504 329.259 207.113C329.259 207.722 328.763 208.217 328.153 208.217V208.217Z" fill="#3F3D56"/>
<path d="M133.763 216.556H50.8856C57.8323 201.077 62.103 186.336 55.4268 174.61L133.763 170.075C129.848 185.904 129.37 201.439 133.763 216.556Z" fill="#FFB6B6"/>
<path d="M162.307 345.581H101.378C100.937 345.581 100.536 345.33 100.343 344.934L99.9722 344.17L91.8754 327.573C91.3541 326.505 89.7498 326.834 89.6925 328.021L88.9124 344.17L88.8963 344.49C88.8657 345.101 88.3605 345.581 87.7475 345.581H27.7589C27.1527 345.581 26.6502 345.11 26.6104 344.506C26.603 344.394 26.5958 344.281 26.589 344.17C22.7587 285.139 36.5322 245.126 44.6097 227.222L44.6168 227.215C47.7898 220.173 50.0937 216.552 50.0937 216.552L50.8922 216.545H50.8993L67.0331 216.263H67.0402L81.3296 216.023L92.1278 215.847L96.4599 215.769H96.4669L99.1807 215.727L112.671 215.494L124.721 215.289L133.371 215.148H133.611L134.897 220.688V220.695L134.946 220.942V220.949L135.166 221.859L135.173 221.887L135.611 223.8V223.814L135.639 223.92V223.927L135.745 224.386L135.752 224.407L136.77 228.803L138.416 235.952L140.586 245.302L143.321 257.172L144.706 263.149L146.607 271.385L163.426 344.17C163.596 344.891 163.048 345.581 162.307 345.581H162.307Z" fill="#2F2E41"/>
<path d="M121.798 78.7093L88.8158 77.5601L75.7785 95.0179L68.9185 96.5054C58.6353 98.7353 51.5811 108.206 52.4005 118.682L55.5168 191.261L56.9302 199.729L134.667 212.431L152.146 102.592L129.146 94.3408L121.798 78.7093V78.7093Z" fill="#F56300"/>
<path d="M109.762 75.9563C126.112 75.9563 139.367 62.7204 139.367 46.393C139.367 30.0656 126.112 16.8297 109.762 16.8297C93.411 16.8297 80.1562 30.0656 80.1562 46.393C80.1562 62.7204 93.411 75.9563 109.762 75.9563Z" fill="#FFB6B6"/>
<path d="M439.454 342.836L413.788 333.311C409.938 331.883 407.97 327.593 409.401 323.749L434.616 255.995C436.047 252.151 440.343 250.186 444.192 251.615L469.859 261.14C473.708 262.568 475.676 266.858 474.246 270.702C464.598 298.087 454.073 328.858 449.03 338.456C447.6 342.3 443.304 344.265 439.454 342.836V342.836Z" fill="#3F3D56"/>
<path d="M467.923 288.785C467.76 288.725 467.578 288.808 467.518 288.971L464.006 298.408C463.945 298.571 464.028 298.753 464.191 298.813C464.354 298.873 464.536 298.79 464.596 298.628L468.109 289.19C468.169 289.027 468.086 288.846 467.923 288.785Z" fill="#3F3D56"/>
<path d="M473.581 270.456L448.366 338.208C447.121 341.554 443.494 343.323 440.118 342.312L440.116 342.311C440.066 342.296 440.017 342.281 439.966 342.264C439.877 342.236 439.789 342.205 439.701 342.172C439.701 342.172 439.385 342.028 438.808 341.763C438.224 341.496 437.376 341.106 436.32 340.615C436.003 340.469 435.67 340.313 435.317 340.149C434.616 339.822 433.845 339.462 433.021 339.072C432.691 338.918 432.352 338.756 432.004 338.592C430.229 337.754 428.243 336.807 426.155 335.794C425.801 335.624 425.445 335.452 425.087 335.277C424.993 335.23 409.772 324.785 410.066 323.994L435.281 256.242C436.578 252.758 440.457 250.983 443.946 252.278L447.718 253.678C448.32 253.901 448.63 254.55 448.459 255.169C448.448 255.211 448.438 255.252 448.43 255.295C448.315 255.939 448.713 256.564 449.327 256.792L462.584 261.712C463.199 261.94 463.909 261.725 464.242 261.163C464.265 261.126 464.284 261.088 464.303 261.049C464.578 260.468 465.237 260.179 465.84 260.403L469.611 261.802C473.101 263.097 474.878 266.971 473.581 270.456V270.456Z" fill="#F56300"/>
<path d="M430.423 266.813C430.26 266.752 430.078 266.835 430.017 266.998L429.139 269.357C429.079 269.52 429.162 269.701 429.325 269.762C429.488 269.822 429.67 269.739 429.73 269.577L430.608 267.217C430.669 267.054 430.585 266.873 430.423 266.813Z" fill="#3F3D56"/>
<path d="M427.788 273.891C427.625 273.831 427.444 273.914 427.383 274.076L425.682 278.648C425.621 278.81 425.705 278.992 425.867 279.052C426.03 279.113 426.212 279.03 426.273 278.867L427.974 274.296C428.034 274.133 427.951 273.951 427.788 273.891Z" fill="#3F3D56"/>
<path d="M425.373 280.38C425.211 280.319 425.029 280.402 424.968 280.565L423.267 285.136C423.206 285.299 423.29 285.48 423.453 285.541C423.616 285.601 423.797 285.518 423.858 285.356L425.559 280.784C425.62 280.621 425.536 280.44 425.373 280.38Z" fill="#3F3D56"/>
<path d="M447.229 254.672L441.584 252.577C441.553 252.565 441.517 252.581 441.506 252.613L441.274 253.236C441.262 253.267 441.278 253.302 441.31 253.314L446.955 255.409C446.986 255.421 447.021 255.405 447.033 255.373L447.265 254.75C447.277 254.719 447.261 254.683 447.229 254.672Z" fill="#E6E6E6"/>
<path d="M466.334 262.559C466.682 262.559 466.964 262.277 466.964 261.929C466.964 261.582 466.682 261.3 466.334 261.3C465.986 261.3 465.703 261.582 465.703 261.929C465.703 262.277 465.986 262.559 466.334 262.559Z" fill="#E6E6E6"/>
<path d="M467.958 263.162C468.306 263.162 468.588 262.88 468.588 262.532C468.588 262.185 468.306 261.903 467.958 261.903C467.61 261.903 467.328 262.185 467.328 262.532C467.328 262.88 467.61 263.162 467.958 263.162Z" fill="#E6E6E6"/>
<path d="M469.583 263.764C469.931 263.764 470.213 263.483 470.213 263.135C470.213 262.788 469.931 262.506 469.583 262.506C469.234 262.506 468.952 262.788 468.952 263.135C468.952 263.483 469.234 263.764 469.583 263.764Z" fill="#E6E6E6"/>
<path d="M376.525 128.891H354.362C351.51 128.891 349.189 126.574 349.189 123.726V98.7712C349.189 95.9233 351.51 93.6063 354.362 93.6063H376.525C379.377 93.6063 381.697 95.9233 381.697 98.7712V123.726C381.697 126.574 379.377 128.891 376.525 128.891Z" fill="white"/>
<path d="M376.525 128.891H354.362C351.51 128.891 349.189 126.574 349.189 123.726C348.075 114.537 347.768 105.979 349.189 98.7712C349.189 95.9233 351.51 93.6064 354.362 93.6064H376.525C379.377 93.6064 381.697 95.9233 381.697 98.7712V123.726C381.697 126.574 379.377 128.891 376.525 128.891V128.891ZM354.362 94.312C351.899 94.312 349.896 96.3123 349.896 98.7712V123.726C349.896 126.185 351.899 128.185 354.362 128.185H376.525C378.987 128.185 380.991 126.185 380.991 123.726V98.7712C380.991 96.3123 378.987 94.312 376.525 94.312H354.362Z" fill="#3F3D56"/>
<path d="M374.286 108.779H356.024C355.249 108.779 354.619 108.149 354.619 107.376C354.619 106.602 355.249 105.973 356.024 105.973H374.286C375.06 105.973 375.69 106.602 375.69 107.376C375.69 108.149 375.06 108.779 374.286 108.779Z" fill="#F56300"/>
<path d="M374.286 116.541H356.024C355.249 116.541 354.619 115.912 354.619 115.139C354.619 114.365 355.249 113.736 356.024 113.736H374.286C375.06 113.736 375.69 114.365 375.69 115.139C375.69 115.912 375.06 116.541 374.286 116.541Z" fill="#F56300"/>
<path d="M374.286 101.016H356.024C355.249 101.016 354.619 100.387 354.619 99.6133C354.619 98.8399 355.249 98.2106 356.024 98.2106H374.286C375.06 98.2106 375.69 98.8399 375.69 99.6133C375.69 100.387 375.06 101.016 374.286 101.016Z" fill="#F56300"/>
<path d="M99.6952 85.16C101.317 88.2139 103.496 90.6487 105.806 92.2239L119.419 122.291L133.557 115.403L118.225 85.6451C118.215 82.8522 117.418 79.6856 115.795 76.6317C112.089 69.6552 105.481 65.9087 101.035 68.2637C96.589 70.6188 95.9892 78.1835 99.6952 85.16L99.6952 85.16Z" fill="#FFB6B6"/>
<path d="M130.35 104.111C130.35 104.111 151.085 93.261 157.519 104.654C163.008 114.374 166.974 163.015 168.02 177.086C168.204 179.556 167.558 182.009 166.185 184.071V184.071C162.119 190.179 153.353 190.761 148.512 185.245L106.495 102.632L126.426 93.1732L131.3 104.962L130.35 104.111V104.111Z" fill="#F56300"/>
<path d="M174.681 220.495C175.136 219.851 175.404 219.066 175.404 218.218V145.818C175.404 143.633 173.631 141.862 171.443 141.862H61.8487C59.6609 141.862 57.8872 143.633 57.8872 145.818V218.218C57.8872 219.066 58.1555 219.851 58.6108 220.495H44.9231V224.291C92.5121 226.949 140.327 226.949 188.369 224.291V220.495H174.681V220.495Z" fill="#3F3D56"/>
<path d="M292.428 378H270.265C267.413 378 265.093 375.683 265.093 372.835V347.88C265.093 345.032 267.413 342.715 270.265 342.715H292.428C295.28 342.715 297.601 345.032 297.601 347.88V372.835C297.601 375.683 295.28 378 292.428 378Z" fill="white"/>
<path d="M292.428 378H270.265C267.413 378 265.093 375.683 265.093 372.835C263.978 363.646 263.671 355.088 265.093 347.88C265.093 345.032 267.413 342.715 270.265 342.715H292.428C295.28 342.715 297.601 345.032 297.601 347.88V372.835C297.601 375.683 295.28 378 292.428 378V378ZM270.265 343.421C267.802 343.421 265.799 345.421 265.799 347.88V372.835C265.799 375.294 267.802 377.294 270.265 377.294H292.428C294.891 377.294 296.894 375.294 296.894 372.835V347.88C296.894 345.421 294.891 343.421 292.428 343.421H270.265Z" fill="#3F3D56"/>
<path d="M290.189 357.888H271.927C271.153 357.888 270.522 357.259 270.522 356.485C270.522 355.712 271.153 355.082 271.927 355.082H290.189C290.964 355.082 291.594 355.712 291.594 356.485C291.594 357.259 290.964 357.888 290.189 357.888V357.888Z" fill="#F56300"/>
<path d="M290.189 365.65H271.927C271.153 365.65 270.522 365.021 270.522 364.248C270.522 363.474 271.153 362.845 271.927 362.845H290.189C290.964 362.845 291.594 363.474 291.594 364.248C291.594 365.021 290.964 365.65 290.189 365.65V365.65Z" fill="#F56300"/>
<path d="M290.189 350.125H271.927C271.153 350.125 270.522 349.496 270.522 348.722C270.522 347.949 271.153 347.32 271.927 347.32H290.189C290.964 347.32 291.594 347.949 291.594 348.722C291.594 349.496 290.964 350.125 290.189 350.125V350.125Z" fill="#F56300"/>
<path d="M99.0777 210.917C95.6159 210.935 92.4453 211.733 89.9763 213.045L56.9872 211.139L56.5382 226.841L90.0507 227.084C92.5334 228.37 95.7123 229.134 99.1741 229.116C107.083 229.074 113.472 224.966 113.445 219.94C113.419 214.915 106.986 210.875 99.0777 210.917H99.0777Z" fill="#FFB6B6"/>
<path d="M67.3828 96.5594C67.3828 96.5594 39.3395 93.439 32.1959 110.812C26.7388 124.083 12.5618 175.806 4.60628 205.419C1.69771 216.245 9.60497 226.965 20.8215 227.409L70.3574 229.368L73.2225 207.485L37.8494 201.846L57.6369 142.568L67.3828 96.5594V96.5594Z" fill="#F56300"/>
<path d="M139.375 23.5698C140.798 16.3703 132.061 13.5741 125.517 10.2336L119.962 5.54159C114.138 2.56825 107.328 2.18591 101.207 4.48857L82.1039 10.8385C73.4328 14.1004 70.4072 21.8651 65.4105 29.6573L57.0349 40.823C52.1161 48.4937 53.5866 60.4694 54.7401 69.5048L55.2235 73.291L50.6216 84.2797L85.9879 90.5847L93.1162 73.6263L88.6678 65.5662C87.0894 62.7063 87.721 59.1346 90.1847 56.9875L90.1848 56.9875C99.0473 49.264 100.745 36.0085 100.745 36.0085L108.237 42.6062C113.682 44.6461 118.708 45.6979 123.323 45.7777C128.399 45.8656 132.976 44.7778 137.065 42.5359L137.785 53.4676C135.671 66.3906 132.517 69.2323 118.305 79.1187L135.41 96.1496L136.211 89.2144C138.118 72.7165 146.357 61.2343 148.587 47.9607C150.129 38.7824 146.569 29.4859 139.375 23.5698H139.375V23.5698Z" fill="#2F2E41"/>
</g>
<defs>
<clipPath id="clip0_3_50">
<rect width="472" height="375" fill="white" transform="translate(4 3)"/>
</clipPath>
</defs>
</svg>
